<mxfile host="app.diagrams.net" agent="Mozilla/5.0 (Windows NT 10.0; Win64; x64) AppleWebKit/537.36 (KHTML, like Gecko) Chrome/132.0.0.0 Safari/537.36 Edg/132.0.0.0" version="26.0.10">
  <diagram name="Page-1" id="MEtRIfIpIUQKAMU_iltm">
    <mxGraphModel dx="1351" dy="944" grid="1" gridSize="10" guides="1" tooltips="1" connect="1" arrows="1" fold="1" page="1" pageScale="1" pageWidth="850" pageHeight="1100" math="0" shadow="0">
      <root>
        <mxCell id="0" />
        <mxCell id="1" parent="0" />
        <mxCell id="hGCtWrkO7Swh3BIQPWQh-6" value="" style="edgeStyle=orthogonalEdgeStyle;rounded=0;orthogonalLoop=1;jettySize=auto;html=1;" edge="1" parent="1" source="hGCtWrkO7Swh3BIQPWQh-1" target="hGCtWrkO7Swh3BIQPWQh-5">
          <mxGeometry relative="1" as="geometry" />
        </mxCell>
        <mxCell id="hGCtWrkO7Swh3BIQPWQh-1" value="Inicio" style="ellipse;whiteSpace=wrap;html=1;aspect=fixed;" vertex="1" parent="1">
          <mxGeometry x="360" y="20" width="80" height="80" as="geometry" />
        </mxCell>
        <mxCell id="hGCtWrkO7Swh3BIQPWQh-10" value="" style="edgeStyle=orthogonalEdgeStyle;rounded=0;orthogonalLoop=1;jettySize=auto;html=1;" edge="1" parent="1" source="hGCtWrkO7Swh3BIQPWQh-5" target="hGCtWrkO7Swh3BIQPWQh-9">
          <mxGeometry relative="1" as="geometry" />
        </mxCell>
        <mxCell id="hGCtWrkO7Swh3BIQPWQh-5" value="&#xa;&lt;span style=&quot;background-color: transparent; color: rgb(26, 26, 26);&quot;&gt;Mostrar mensaje: &quot;Por favor, ingrese una palabra&quot;&lt;/span&gt;&#xa;&#xa;" style="shape=parallelogram;perimeter=parallelogramPerimeter;whiteSpace=wrap;html=1;fixedSize=1;fillColor=#fff2cc;strokeColor=#d6b656;" vertex="1" parent="1">
          <mxGeometry x="270" y="180" width="260" height="80" as="geometry" />
        </mxCell>
        <mxCell id="hGCtWrkO7Swh3BIQPWQh-12" value="" style="edgeStyle=orthogonalEdgeStyle;rounded=0;orthogonalLoop=1;jettySize=auto;html=1;" edge="1" parent="1" source="hGCtWrkO7Swh3BIQPWQh-9">
          <mxGeometry relative="1" as="geometry">
            <mxPoint x="400" y="520" as="targetPoint" />
          </mxGeometry>
        </mxCell>
        <mxCell id="hGCtWrkO7Swh3BIQPWQh-9" value="&#xa;&lt;span style=&quot;color: rgb(26, 26, 26);&quot;&gt;Definir la variable cantidad_letras y asignarle la longitud de palabra_ingresada.&lt;/span&gt;&#xa;&#xa;" style="rounded=1;whiteSpace=wrap;html=1;fillColor=#d5e8d4;strokeColor=#82b366;" vertex="1" parent="1">
          <mxGeometry x="280" y="320" width="240" height="110" as="geometry" />
        </mxCell>
        <mxCell id="hGCtWrkO7Swh3BIQPWQh-15" value="" style="edgeStyle=orthogonalEdgeStyle;rounded=0;orthogonalLoop=1;jettySize=auto;html=1;" edge="1" parent="1" source="hGCtWrkO7Swh3BIQPWQh-13" target="hGCtWrkO7Swh3BIQPWQh-14">
          <mxGeometry relative="1" as="geometry">
            <Array as="points">
              <mxPoint x="400" y="650" />
              <mxPoint x="400" y="650" />
            </Array>
          </mxGeometry>
        </mxCell>
        <mxCell id="hGCtWrkO7Swh3BIQPWQh-13" value="&lt;span style=&quot;color: rgb(26, 26, 26); background-color: transparent;&quot;&gt;Mostrar el mensaje: &quot;La palabra ingresada tiene&quot;, cantidad_letras, &quot;letras&quot;&lt;/span&gt;" style="shape=parallelogram;perimeter=parallelogramPerimeter;whiteSpace=wrap;html=1;fixedSize=1;fillColor=#fff2cc;strokeColor=#d6b656;" vertex="1" parent="1">
          <mxGeometry x="270" y="530" width="260" height="80" as="geometry" />
        </mxCell>
        <mxCell id="hGCtWrkO7Swh3BIQPWQh-14" value="Fin" style="ellipse;whiteSpace=wrap;html=1;" vertex="1" parent="1">
          <mxGeometry x="360" y="680" width="80" height="80" as="geometry" />
        </mxCell>
      </root>
    </mxGraphModel>
  </diagram>
</mxfile>
